<?xml version="1.0" encoding="UTF-8" standalone="no"?>
<!DOCTYPE svg PUBLIC "-//W3C//DTD SVG 1.1//EN"
 "http://www.w3.org/Graphics/SVG/1.1/DTD/svg11.dtd">
<!-- Generated by graphviz version 2.43.0 (0)
 -->
<!-- Title: G Pages: 1 -->
<svg width="579pt" height="219pt"
 viewBox="0.00 0.00 579.35 219.00" xmlns="http://www.w3.org/2000/svg" xmlns:xlink="http://www.w3.org/1999/xlink">
<g id="graph0" class="graph" transform="scale(1 1) rotate(0) translate(4 215)">
<title>G</title>
<g id="clust1" class="cluster">
<title>cluster_runtime</title>
<path fill="transparent" stroke="black" d="M20,-91C20,-91 302,-91 302,-91 308,-91 314,-97 314,-103 314,-103 314,-155 314,-155 314,-161 308,-167 302,-167 302,-167 20,-167 20,-167 14,-167 8,-161 8,-155 8,-155 8,-103 8,-103 8,-97 14,-91 20,-91"/>
<text text-anchor="middle" x="161" y="-151.8" font-family="Times,serif" font-size="14.00">Runtime Systems</text>
</g>
<g id="clust2" class="cluster">
<title>cluster_paradigm</title>
<path fill="transparent" stroke="black" d="M208,-8C208,-8 334,-8 334,-8 340,-8 346,-14 346,-20 346,-20 346,-71 346,-71 346,-77 340,-83 334,-83 334,-83 208,-83 208,-83 202,-83 196,-77 196,-71 196,-71 196,-20 196,-20 196,-14 202,-8 208,-8"/>
<text text-anchor="middle" x="271" y="-67.8" font-family="Times,serif" font-size="14.00">Paradigms</text>
</g>
<g id="clust3" class="cluster">
<title>cluster_kernel</title>
<path fill="transparent" stroke="black" d="M366,-8C366,-8 545,-8 545,-8 551,-8 557,-14 557,-20 557,-20 557,-154.5 557,-154.5 557,-160.5 551,-166.5 545,-166.5 545,-166.5 366,-166.5 366,-166.5 360,-166.5 354,-160.5 354,-154.5 354,-154.5 354,-20 354,-20 354,-14 360,-8 366,-8"/>
<text text-anchor="middle" x="455.5" y="-151.3" font-family="Times,serif" font-size="14.00">Kernels</text>
</g>
<!-- chameleon -->
<g id="node1" class="node">
<title>chameleon</title>
<polygon fill="lightgrey" stroke="blue" stroke-width="2" points="453.5,-211 348.5,-211 348.5,-175 453.5,-175 453.5,-211"/>
<text text-anchor="start" x="356.5" y="-190.3" font-family="Times,serif" font-weight="bold" font-size="14.00">Chameleon</text>
</g>
<!-- sched -->
<g id="node2" class="node">
<title>sched</title>
<polygon fill="none" stroke="green" points="15.5,-99.5 15.5,-135.5 306.5,-135.5 306.5,-99.5 15.5,-99.5"/>
<text text-anchor="middle" x="54.5" y="-113.8" font-family="Times,serif" font-size="14.00">OpenMP</text>
<polyline fill="none" stroke="green" points="93.5,-99.5 93.5,-135.5 "/>
<text text-anchor="middle" x="131" y="-113.8" font-family="Times,serif" font-size="14.00">PaRSEC</text>
<polyline fill="none" stroke="green" points="168.5,-99.5 168.5,-135.5 "/>
<text text-anchor="middle" x="203.5" y="-113.8" font-family="Times,serif" font-size="14.00">QUARK</text>
<polyline fill="none" stroke="green" points="238.5,-99.5 238.5,-135.5 "/>
<text text-anchor="middle" x="272.5" y="-113.8" font-family="Times,serif" font-size="14.00">StarPU</text>
</g>
<!-- chameleon&#45;&gt;sched -->
<g id="edge1" class="edge">
<title>chameleon&#45;&gt;sched</title>
<path fill="none" stroke="black" d="M348.33,-175.87C340.64,-173.51 332.39,-170.99 323.81,-168.36"/>
<polygon fill="black" stroke="black" points="324.58,-164.94 314,-165.36 322.53,-171.63 324.58,-164.94"/>
</g>
<!-- mpi -->
<g id="node4" class="node">
<title>mpi</title>
<polygon fill="none" stroke="gold" stroke-width="2" points="338,-52 284,-52 284,-16 338,-16 338,-52"/>
<text text-anchor="start" x="294" y="-31.3" font-family="Times,serif" font-weight="bold" font-size="14.00">MPI</text>
</g>
<!-- chameleon&#45;&gt;mpi -->
<g id="edge9" class="edge">
<title>chameleon&#45;&gt;mpi</title>
<path fill="none" stroke="dimgrey" d="M358.3,-174.72C355.24,-172.43 352.42,-169.86 350,-167 340.22,-155.41 330.55,-122.87 323.28,-92.99"/>
<polygon fill="dimgrey" stroke="dimgrey" points="326.63,-91.92 320.92,-83 319.82,-93.54 326.63,-91.92"/>
</g>
<!-- cublas -->
<g id="node5" class="node">
<title>cublas</title>
<polygon fill="none" stroke="red" stroke-width="2" points="439.5,-135.5 362.5,-135.5 362.5,-99.5 439.5,-99.5 439.5,-135.5"/>
<text text-anchor="start" x="370.5" y="-114.8" font-family="Times,serif" font-weight="bold" font-size="14.00">cuBLAS</text>
</g>
<!-- chameleon&#45;&gt;cublas -->
<g id="edge10" class="edge">
<title>chameleon&#45;&gt;cublas</title>
<path fill="none" stroke="black" d="M401,-174.95C401,-166.3 401,-155.57 401,-145.79"/>
<polygon fill="black" stroke="black" points="404.5,-145.71 401,-135.71 397.5,-145.71 404.5,-145.71"/>
</g>
<!-- lapacke -->
<g id="node6" class="node">
<title>lapacke</title>
<polygon fill="none" stroke="red" stroke-width="2" points="548.5,-135.5 457.5,-135.5 457.5,-99.5 548.5,-99.5 548.5,-135.5"/>
<text text-anchor="start" x="465.5" y="-114.8" font-family="Times,serif" font-weight="bold" font-size="14.00">LAPACKE</text>
</g>
<!-- chameleon&#45;&gt;lapacke -->
<g id="edge8" class="edge">
<title>chameleon&#45;&gt;lapacke</title>
<path fill="none" stroke="black" d="M436.21,-174.98C440.62,-172.47 444.98,-169.78 449,-167 459.25,-159.89 469.65,-151.03 478.55,-142.83"/>
<polygon fill="black" stroke="black" points="481.07,-145.27 485.94,-135.86 476.27,-140.18 481.07,-145.27"/>
</g>
<!-- cblas -->
<g id="node7" class="node">
<title>cblas</title>
<polygon fill="none" stroke="red" stroke-width="2" points="543,-52 473,-52 473,-16 543,-16 543,-52"/>
<text text-anchor="start" x="481" y="-31.3" font-family="Times,serif" font-weight="bold" font-size="14.00">CBLAS</text>
</g>
<!-- chameleon&#45;&gt;cblas -->
<g id="edge7" class="edge">
<title>chameleon&#45;&gt;cblas</title>
<path fill="none" stroke="black" d="M453.77,-190.72C494,-188.5 544.7,-182.59 558,-167 579.93,-141.31 570.04,-122.56 558,-91 553.46,-79.11 545.11,-68.14 536.52,-59.12"/>
<polygon fill="black" stroke="black" points="538.9,-56.55 529.32,-52.03 533.98,-61.54 538.9,-56.55"/>
</g>
<!-- cuda -->
<g id="node3" class="node">
<title>cuda</title>
<polygon fill="none" stroke="gold" stroke-width="2" points="266,-52 204,-52 204,-16 266,-16 266,-52"/>
<text text-anchor="start" x="212" y="-31.3" font-family="Times,serif" font-weight="bold" font-size="14.00">CUDA</text>
</g>
<!-- sched&#45;&gt;cuda -->
<g id="edge2" class="edge">
<title>sched:sched_starpu&#45;&gt;cuda</title>
<path fill="none" stroke="dimgrey" d="M273,-98.5C273,-84.71 266.32,-71.33 258.57,-60.43"/>
<polygon fill="dimgrey" stroke="dimgrey" points="261.12,-58.01 252.22,-52.26 255.59,-62.3 261.12,-58.01"/>
</g>
<!-- sched&#45;&gt;cuda -->
<g id="edge4" class="edge">
<title>sched:sched_parsec&#45;&gt;cuda</title>
<path fill="none" stroke="dimgrey" d="M131,-98.5C131,-67.65 164.74,-51.35 193.78,-43.02"/>
<polygon fill="dimgrey" stroke="dimgrey" points="195.01,-46.32 203.8,-40.4 193.24,-39.55 195.01,-46.32"/>
</g>
<!-- sched&#45;&gt;mpi -->
<g id="edge3" class="edge">
<title>sched:sched_starpu&#45;&gt;mpi</title>
<path fill="none" stroke="dimgrey" d="M273,-98.5C273,-84.71 279.68,-71.33 287.43,-60.43"/>
<polygon fill="dimgrey" stroke="dimgrey" points="290.41,-62.3 293.78,-52.26 284.88,-58.01 290.41,-62.3"/>
</g>
<!-- cublas&#45;&gt;cuda -->
<g id="edge6" class="edge">
<title>cublas&#45;&gt;cuda</title>
<path fill="none" stroke="black" d="M362.41,-103.64C348.51,-99.28 332.64,-94.6 318,-91 299.12,-86.36 291.77,-92.83 275,-83 265.59,-77.49 257.41,-68.91 250.93,-60.52"/>
<polygon fill="black" stroke="black" points="253.72,-58.39 245.05,-52.31 248.03,-62.47 253.72,-58.39"/>
</g>
<!-- lapacke&#45;&gt;cblas -->
<g id="edge5" class="edge">
<title>lapacke&#45;&gt;cblas</title>
<path fill="none" stroke="black" d="M504.06,-99.22C504.72,-88.52 505.57,-74.55 506.32,-62.37"/>
<polygon fill="black" stroke="black" points="509.82,-62.45 506.94,-52.26 502.84,-62.03 509.82,-62.45"/>
</g>
</g>
</svg>
