<?xml version="1.0" encoding="UTF-8" standalone="no"?>
<!DOCTYPE svg PUBLIC "-//W3C//DTD SVG 1.1//EN"
 "http://www.w3.org/Graphics/SVG/1.1/DTD/svg11.dtd">
<!-- Generated by graphviz version 2.43.0 (0)
 -->
<!-- Title: G Pages: 1 -->
<svg width="579pt" height="219pt"
 viewBox="0.00 0.00 579.35 219.00" xmlns="http://www.w3.org/2000/svg" xmlns:xlink="http://www.w3.org/1999/xlink">
<g id="graph0" class="graph" transform="scale(1 1) rotate(0) translate(4 215)">
<title>G</title>
<g id="clust1" class="cluster">
<title>cluster_runtime</title>
<path fill="transparent" stroke="black" d="M20,-91C20,-91 302,-91 302,-91 308,-91 314,-97 314,-103 314,-103 314,-155 314,-155 314,-161 308,-167 302,-167 302,-167 20,-167 20,-167 14,-167 8,-161 8,-155 8,-155 8,-103 8,-103 8,-97 14,-91 20,-91"/>
<text text-anchor="middle" x="161" y="-151.8" font-family="Times,serif" font-size="14.00">Runtime Systems</text>
</g>
<g id="clust2" class="cluster">
<title>cluster_paradigm</title>
<path fill="transparent" stroke="black" d="M191,-8C191,-8 317,-8 317,-8 323,-8 329,-14 329,-20 329,-20 329,-71 329,-71 329,-77 323,-83 317,-83 317,-83 191,-83 191,-83 185,-83 179,-77 179,-71 179,-71 179,-20 179,-20 179,-14 185,-8 191,-8"/>
<text text-anchor="middle" x="254" y="-67.8" font-family="Times,serif" font-size="14.00">Paradigms</text>
</g>
<g id="clust3" class="cluster">
<title>cluster_kernel</title>
<path fill="transparent" stroke="black" d="M366,-8C366,-8 545,-8 545,-8 551,-8 557,-14 557,-20 557,-20 557,-154.5 557,-154.5 557,-160.5 551,-166.5 545,-166.5 545,-166.5 366,-166.5 366,-166.5 360,-166.5 354,-160.5 354,-154.5 354,-154.5 354,-20 354,-20 354,-14 360,-8 366,-8"/>
<text text-anchor="middle" x="455.5" y="-151.3" font-family="Times,serif" font-size="14.00">Kernels</text>
</g>
<!-- chameleon -->
<g id="node1" class="node">
<title>chameleon</title>
<polygon fill="lightgrey" stroke="blue" stroke-width="2" points="453.5,-211 348.5,-211 348.5,-175 453.5,-175 453.5,-211"/>
<text text-anchor="start" x="356.5" y="-190.3" font-family="Times,serif" font-weight="bold" font-size="14.00">Chameleon</text>
</g>
<!-- sched -->
<g id="node2" class="node">
<title>sched</title>
<polygon fill="none" stroke="green" points="15.5,-99.5 15.5,-135.5 306.5,-135.5 306.5,-99.5 15.5,-99.5"/>
<text text-anchor="middle" x="54.5" y="-113.8" font-family="Times,serif" font-size="14.00">OpenMP</text>
<polyline fill="none" stroke="green" points="93.5,-99.5 93.5,-135.5 "/>
<text text-anchor="middle" x="131" y="-113.8" font-family="Times,serif" font-size="14.00">PaRSEC</text>
<polyline fill="none" stroke="green" points="168.5,-99.5 168.5,-135.5 "/>
<text text-anchor="middle" x="203.5" y="-113.8" font-family="Times,serif" font-size="14.00">QUARK</text>
<polyline fill="none" stroke="green" points="238.5,-99.5 238.5,-135.5 "/>
<text text-anchor="middle" x="272.5" y="-113.8" font-family="Times,serif" font-size="14.00">StarPU</text>
</g>
<!-- chameleon&#45;&gt;sched -->
<g id="edge1" class="edge">
<title>chameleon&#45;&gt;sched</title>
<path fill="none" stroke="black" d="M348.33,-175.87C340.64,-173.51 332.39,-170.99 323.81,-168.36"/>
<polygon fill="black" stroke="black" points="324.58,-164.94 314,-165.36 322.53,-171.63 324.58,-164.94"/>
</g>
<!-- mpi -->
<g id="node4" class="node">
<title>mpi</title>
<polygon fill="none" stroke="gold" stroke-width="2" points="241,-52 187,-52 187,-16 241,-16 241,-52"/>
<text text-anchor="start" x="197" y="-31.3" font-family="Times,serif" font-weight="bold" font-size="14.00">MPI</text>
</g>
<!-- chameleon&#45;&gt;mpi -->
<g id="edge10" class="edge">
<title>chameleon&#45;&gt;mpi</title>
<path fill="none" stroke="dimgrey" d="M359.38,-174.94C355.97,-172.58 352.78,-169.94 350,-167 324.84,-140.35 347.29,-113.02 318,-91 296.72,-75 280.81,-92.5 259.5,-86.95"/>
<polygon fill="dimgrey" stroke="dimgrey" points="260.58,-83.61 250,-83 257.89,-90.07 260.58,-83.61"/>
</g>
<!-- cublas -->
<g id="node5" class="node">
<title>cublas</title>
<polygon fill="none" stroke="red" stroke-width="2" points="439.5,-135.5 362.5,-135.5 362.5,-99.5 439.5,-99.5 439.5,-135.5"/>
<text text-anchor="start" x="370.5" y="-114.8" font-family="Times,serif" font-weight="bold" font-size="14.00">cuBLAS</text>
</g>
<!-- chameleon&#45;&gt;cublas -->
<g id="edge11" class="edge">
<title>chameleon&#45;&gt;cublas</title>
<path fill="none" stroke="black" d="M401,-174.95C401,-166.3 401,-155.57 401,-145.79"/>
<polygon fill="black" stroke="black" points="404.5,-145.71 401,-135.71 397.5,-145.71 404.5,-145.71"/>
</g>
<!-- lapacke -->
<g id="node6" class="node">
<title>lapacke</title>
<polygon fill="none" stroke="red" stroke-width="2" points="548.5,-135.5 457.5,-135.5 457.5,-99.5 548.5,-99.5 548.5,-135.5"/>
<text text-anchor="start" x="465.5" y="-114.8" font-family="Times,serif" font-weight="bold" font-size="14.00">LAPACKE</text>
</g>
<!-- chameleon&#45;&gt;lapacke -->
<g id="edge9" class="edge">
<title>chameleon&#45;&gt;lapacke</title>
<path fill="none" stroke="black" d="M436.21,-174.98C440.62,-172.47 444.98,-169.78 449,-167 459.25,-159.89 469.65,-151.03 478.55,-142.83"/>
<polygon fill="black" stroke="black" points="481.07,-145.27 485.94,-135.86 476.27,-140.18 481.07,-145.27"/>
</g>
<!-- cblas -->
<g id="node7" class="node">
<title>cblas</title>
<polygon fill="none" stroke="red" stroke-width="2" points="543,-52 473,-52 473,-16 543,-16 543,-52"/>
<text text-anchor="start" x="481" y="-31.3" font-family="Times,serif" font-weight="bold" font-size="14.00">CBLAS</text>
</g>
<!-- chameleon&#45;&gt;cblas -->
<g id="edge8" class="edge">
<title>chameleon&#45;&gt;cblas</title>
<path fill="none" stroke="black" d="M453.77,-190.72C494,-188.5 544.7,-182.59 558,-167 579.93,-141.31 570.04,-122.56 558,-91 553.46,-79.11 545.11,-68.14 536.52,-59.12"/>
<polygon fill="black" stroke="black" points="538.9,-56.55 529.32,-52.03 533.98,-61.54 538.9,-56.55"/>
</g>
<!-- cuda -->
<g id="node3" class="node">
<title>cuda</title>
<polygon fill="none" stroke="gold" stroke-width="2" points="321,-52 259,-52 259,-16 321,-16 321,-52"/>
<text text-anchor="start" x="267" y="-31.3" font-family="Times,serif" font-weight="bold" font-size="14.00">CUDA</text>
</g>
<!-- sched&#45;&gt;cuda -->
<g id="edge2" class="edge">
<title>sched:sched_starpu&#45;&gt;cuda</title>
<path fill="none" stroke="dimgrey" d="M273,-98.5C273,-86.18 276.02,-72.96 279.52,-61.79"/>
<polygon fill="dimgrey" stroke="dimgrey" points="282.88,-62.78 282.79,-52.19 276.25,-60.52 282.88,-62.78"/>
</g>
<!-- sched&#45;&gt;cuda -->
<g id="edge4" class="edge">
<title>sched:sched_parsec&#45;&gt;cuda</title>
<path fill="none" stroke="dimgrey" d="M131,-98.5C131,-71.83 226.63,-95.85 250,-83 259.7,-77.67 268.01,-68.97 274.52,-60.42"/>
<polygon fill="dimgrey" stroke="dimgrey" points="277.5,-62.26 280.39,-52.07 271.78,-58.23 277.5,-62.26"/>
</g>
<!-- sched&#45;&gt;mpi -->
<g id="edge3" class="edge">
<title>sched:sched_starpu&#45;&gt;mpi</title>
<path fill="none" stroke="dimgrey" d="M273,-98.5C273,-86.17 258.93,-91.49 250,-83 243.05,-76.4 236.45,-68.34 230.84,-60.73"/>
<polygon fill="dimgrey" stroke="dimgrey" points="233.38,-58.26 224.75,-52.11 227.66,-62.3 233.38,-58.26"/>
</g>
<!-- sched&#45;&gt;mpi -->
<g id="edge5" class="edge">
<title>sched:sched_parsec&#45;&gt;mpi</title>
<path fill="none" stroke="dimgrey" d="M131,-98.5C131,-73.42 155.21,-56.91 177.47,-47.02"/>
<polygon fill="dimgrey" stroke="dimgrey" points="178.9,-50.22 186.82,-43.19 176.24,-43.75 178.9,-50.22"/>
</g>
<!-- cublas&#45;&gt;cuda -->
<g id="edge7" class="edge">
<title>cublas&#45;&gt;cuda</title>
<path fill="none" stroke="black" d="M373.95,-99.4C366.12,-94.28 357.63,-88.54 350,-83 339.46,-75.35 328.23,-66.55 318.37,-58.59"/>
<polygon fill="black" stroke="black" points="320.42,-55.75 310.45,-52.15 316,-61.18 320.42,-55.75"/>
</g>
<!-- lapacke&#45;&gt;cblas -->
<g id="edge6" class="edge">
<title>lapacke&#45;&gt;cblas</title>
<path fill="none" stroke="black" d="M504.06,-99.22C504.72,-88.52 505.57,-74.55 506.32,-62.37"/>
<polygon fill="black" stroke="black" points="509.82,-62.45 506.94,-52.26 502.84,-62.03 509.82,-62.45"/>
</g>
</g>
</svg>
